<mxfile host="app.diagrams.net" modified="2024-01-17T17:18:16.374Z" agent="Mozilla/5.0 (Windows NT 10.0; Win64; x64) AppleWebKit/537.36 (KHTML, like Gecko) Chrome/120.0.0.0 Safari/537.36" etag="j8dUJ-pqror3NhA-8Gz3" version="22.1.19" type="device">
  <diagram id="JJoEpRGihAE5Xga6SS9n" name="Page-1">
    <mxGraphModel dx="735" dy="482" grid="1" gridSize="10" guides="1" tooltips="1" connect="1" arrows="1" fold="1" page="1" pageScale="1" pageWidth="850" pageHeight="1100" math="0" shadow="0">
      <root>
        <mxCell id="0" />
        <mxCell id="1" parent="0" />
        <mxCell id="QoIUCrYNcnI5Q0w0G2yX-7" style="edgeStyle=orthogonalEdgeStyle;rounded=0;orthogonalLoop=1;jettySize=auto;html=1;exitX=1;exitY=0.5;exitDx=0;exitDy=0;" edge="1" parent="1" source="QoIUCrYNcnI5Q0w0G2yX-2" target="QoIUCrYNcnI5Q0w0G2yX-3">
          <mxGeometry relative="1" as="geometry" />
        </mxCell>
        <mxCell id="QoIUCrYNcnI5Q0w0G2yX-2" value="User" style="rounded=1;whiteSpace=wrap;html=1;" vertex="1" parent="1">
          <mxGeometry x="120" y="120" width="120" height="60" as="geometry" />
        </mxCell>
        <mxCell id="QoIUCrYNcnI5Q0w0G2yX-8" style="edgeStyle=orthogonalEdgeStyle;rounded=0;orthogonalLoop=1;jettySize=auto;html=1;exitX=1;exitY=0.5;exitDx=0;exitDy=0;" edge="1" parent="1" source="QoIUCrYNcnI5Q0w0G2yX-3" target="QoIUCrYNcnI5Q0w0G2yX-4">
          <mxGeometry relative="1" as="geometry" />
        </mxCell>
        <mxCell id="QoIUCrYNcnI5Q0w0G2yX-3" value="Load balancer" style="rounded=1;whiteSpace=wrap;html=1;" vertex="1" parent="1">
          <mxGeometry x="320" y="120" width="120" height="60" as="geometry" />
        </mxCell>
        <mxCell id="QoIUCrYNcnI5Q0w0G2yX-9" style="edgeStyle=orthogonalEdgeStyle;rounded=0;orthogonalLoop=1;jettySize=auto;html=1;exitX=0.25;exitY=1;exitDx=0;exitDy=0;" edge="1" parent="1" source="QoIUCrYNcnI5Q0w0G2yX-4" target="QoIUCrYNcnI5Q0w0G2yX-5">
          <mxGeometry relative="1" as="geometry" />
        </mxCell>
        <mxCell id="QoIUCrYNcnI5Q0w0G2yX-4" value="Web server" style="rounded=1;whiteSpace=wrap;html=1;" vertex="1" parent="1">
          <mxGeometry x="520" y="120" width="120" height="60" as="geometry" />
        </mxCell>
        <mxCell id="QoIUCrYNcnI5Q0w0G2yX-5" value="Cache" style="rounded=1;whiteSpace=wrap;html=1;" vertex="1" parent="1">
          <mxGeometry x="400" y="240" width="120" height="60" as="geometry" />
        </mxCell>
        <mxCell id="QoIUCrYNcnI5Q0w0G2yX-6" value="DB" style="rounded=1;whiteSpace=wrap;html=1;" vertex="1" parent="1">
          <mxGeometry x="640" y="240" width="120" height="60" as="geometry" />
        </mxCell>
        <mxCell id="QoIUCrYNcnI5Q0w0G2yX-10" style="edgeStyle=orthogonalEdgeStyle;rounded=0;orthogonalLoop=1;jettySize=auto;html=1;exitX=0.75;exitY=1;exitDx=0;exitDy=0;entryX=0.549;entryY=-0.012;entryDx=0;entryDy=0;entryPerimeter=0;" edge="1" parent="1" source="QoIUCrYNcnI5Q0w0G2yX-4" target="QoIUCrYNcnI5Q0w0G2yX-6">
          <mxGeometry relative="1" as="geometry" />
        </mxCell>
      </root>
    </mxGraphModel>
  </diagram>
</mxfile>
